<svg width="212" height="90" viewBox="0 0 212 90" fill="none" xmlns="http://www.w3.org/2000/svg">
<path d="M190.703 88.3125L168.613 19.2305L166.328 3H179.395L211.094 88.3125H190.703ZM189.766 56.5547V71.1406L177.383 71.2305L165 71.3203H158.948H155.922H152.896H146.698H141.5L148 56.5547H168.883H189.766Z" fill="#FDFDFD"/>
<path d="M98.1016 2V87.3125H79V2H98.1016ZM131.676 37.9766V52.7422H92.7695V37.9766H131.676ZM135.426 2V16.8242H92.7695V2H135.426Z" fill="#FDFDFD"/>
<path d="M37.1523 0.5C44.8166 0.5 51.1306 1.7374 56.0664 4.24414C60.9882 6.70504 64.7367 10.1283 67.29 14.5156L67.7617 15.3418C70.0634 19.5105 71.4885 24.2468 72.0439 29.542L72.1025 30.0938H52.7119L52.6533 29.6611C52.2695 26.8597 51.504 24.4619 50.3691 22.457L50.3662 22.4512C49.2814 20.4687 47.7328 18.9575 45.7109 17.9092L45.7051 17.9053C43.6918 16.8241 41.0465 16.2656 37.7383 16.2656C35.1153 16.2656 32.7535 16.8165 30.6436 17.9092L30.6406 17.9102C28.5768 18.9608 26.823 20.5595 25.3809 22.7227C23.9373 24.888 22.8239 27.6025 22.0527 30.8799V30.8818C21.2828 34.1158 20.8945 37.9033 20.8945 42.25V47.4062C20.8945 51.7505 21.2823 55.5564 22.0518 58.8291C22.8604 62.1023 24.0291 64.8143 25.5469 66.9785C27.0602 69.0972 28.9665 70.7013 31.2695 71.7969C33.6133 72.8931 36.3519 73.4492 39.4961 73.4492C41.9679 73.4492 44.0341 73.2561 45.7031 72.8779L46.3213 72.7158C47.7258 72.327 48.8785 71.8691 49.7891 71.3496C50.7666 70.7558 51.499 70.2216 52.0039 69.75V56.2852H36.8281V41.9844H72.1055V77.0674L71.9814 77.209C70.5309 78.861 68.3381 80.6092 65.4287 82.457L65.4277 82.4561C62.5253 84.3243 58.8273 85.9241 54.3457 87.2607L54.3418 87.2617C49.8315 88.5673 44.4698 89.2148 38.2656 89.2148C32.6257 89.2148 27.4846 88.3071 22.8486 86.4844L22.8447 86.4834C18.2082 84.6208 14.2211 81.9035 10.8887 78.333L10.8867 78.3311C7.55401 74.7206 4.98175 70.324 3.16504 65.1504L3.16406 65.1465C1.38489 59.967 0.5 54.0512 0.5 47.4062V42.3672C0.5 35.7222 1.38489 29.8064 3.16406 24.627C4.941 19.4541 7.45399 15.0755 10.709 11.5029C13.9612 7.89442 17.83 5.15603 22.3115 3.29199C26.7933 1.42789 31.7427 0.5 37.1523 0.5Z" fill="#FDFDFD"/>
<path d="M37.1523 0.5C44.8166 0.5 51.1306 1.7374 56.0664 4.24414C60.9882 6.70504 64.7367 10.1283 67.29 14.5156L67.7617 15.3418C70.0634 19.5105 71.4885 24.2468 72.0439 29.542L72.1025 30.0938H52.7119L52.6533 29.6611C52.2695 26.8597 51.504 24.4619 50.3691 22.457L50.3662 22.4512C49.2814 20.4687 47.7328 18.9575 45.7109 17.9092L45.7051 17.9053C43.6918 16.8241 41.0465 16.2656 37.7383 16.2656C35.1153 16.2656 32.7535 16.8165 30.6436 17.9092L30.6406 17.9102C28.5768 18.9608 26.823 20.5595 25.3809 22.7227C23.9373 24.888 22.8239 27.6025 22.0527 30.8799V30.8818C21.2828 34.1158 20.8945 37.9033 20.8945 42.25V47.4062C20.8945 51.7505 21.2823 55.5564 22.0518 58.8291C22.8604 62.1023 24.0291 64.8143 25.5469 66.9785C27.0602 69.0972 28.9665 70.7013 31.2695 71.7969C33.6133 72.8931 36.3519 73.4492 39.4961 73.4492C41.9679 73.4492 44.0341 73.2561 45.7031 72.8779L46.3213 72.7158C47.7258 72.327 48.8785 71.8691 49.7891 71.3496C50.7666 70.7558 51.499 70.2216 52.0039 69.75V56.2852H36.8281V41.9844H72.1055V77.0674L71.9814 77.209C70.5309 78.861 68.3381 80.6092 65.4287 82.457L65.4277 82.4561C62.5253 84.3243 58.8273 85.9241 54.3457 87.2607L54.3418 87.2617C49.8315 88.5673 44.4698 89.2148 38.2656 89.2148C32.6257 89.2148 27.4846 88.3071 22.8486 86.4844L22.8447 86.4834C18.2082 84.6208 14.2211 81.9035 10.8887 78.333L10.8867 78.3311C7.55401 74.7206 4.98175 70.324 3.16504 65.1504L3.16406 65.1465C1.38489 59.967 0.5 54.0512 0.5 47.4062V42.3672C0.5 35.7222 1.38489 29.8064 3.16406 24.627C4.941 19.4541 7.45399 15.0755 10.709 11.5029C13.9612 7.89442 17.83 5.15603 22.3115 3.29199C26.7933 1.42789 31.7427 0.5 37.1523 0.5Z" stroke="black"/>
<path d="M37.1523 0.5C44.8166 0.5 51.1306 1.7374 56.0664 4.24414C60.9882 6.70504 64.7367 10.1283 67.29 14.5156L67.7617 15.3418C70.0634 19.5105 71.4885 24.2468 72.0439 29.542L72.1025 30.0938H52.7119L52.6533 29.6611C52.2695 26.8597 51.504 24.4619 50.3691 22.457L50.3662 22.4512C49.2814 20.4687 47.7328 18.9575 45.7109 17.9092L45.7051 17.9053C43.6918 16.8241 41.0465 16.2656 37.7383 16.2656C35.1153 16.2656 32.7535 16.8165 30.6436 17.9092L30.6406 17.9102C28.5768 18.9608 26.823 20.5595 25.3809 22.7227C23.9373 24.888 22.8239 27.6025 22.0527 30.8799V30.8818C21.2828 34.1158 20.8945 37.9033 20.8945 42.25V47.4062C20.8945 51.7505 21.2823 55.5564 22.0518 58.8291C22.8604 62.1023 24.0291 64.8143 25.5469 66.9785C27.0602 69.0972 28.9665 70.7013 31.2695 71.7969C33.6133 72.8931 36.3519 73.4492 39.4961 73.4492C41.9679 73.4492 44.0341 73.2561 45.7031 72.8779L46.3213 72.7158C47.7258 72.327 48.8785 71.8691 49.7891 71.3496C50.7666 70.7558 51.499 70.2216 52.0039 69.75V56.2852H36.8281V41.9844H72.1055V77.0674L71.9814 77.209C70.5309 78.861 68.3381 80.6092 65.4287 82.457L65.4277 82.4561C62.5253 84.3243 58.8273 85.9241 54.3457 87.2607L54.3418 87.2617C49.8315 88.5673 44.4698 89.2148 38.2656 89.2148C32.6257 89.2148 27.4846 88.3071 22.8486 86.4844L22.8447 86.4834C18.2082 84.6208 14.2211 81.9035 10.8887 78.333L10.8867 78.3311C7.55401 74.7206 4.98175 70.324 3.16504 65.1504L3.16406 65.1465C1.38489 59.967 0.5 54.0512 0.5 47.4062V42.3672C0.5 35.7222 1.38489 29.8064 3.16406 24.627C4.941 19.4541 7.45399 15.0755 10.709 11.5029C13.9612 7.89442 17.83 5.15603 22.3115 3.29199C26.7933 1.42789 31.7427 0.5 37.1523 0.5Z" stroke="black" stroke-opacity="0.2"/>
<path d="M162.079 3.08523L164.672 3.08392L133.173 88.038L129.917 88.0041L162.079 3.08523Z" fill="#D3FC32"/>
<path d="M158.608 3.06359L160.899 3.07204L128.759 88.0151L126 88L158.608 3.06359Z" fill="#D3FC32"/>
<path d="M154.762 3.09344L157.053 3.10157L124.901 88L122 88L154.762 3.09344Z" fill="#D3FC32"/>
</svg>
